<?xml version="1.0" encoding="UTF-8" standalone="no"?>
<!DOCTYPE svg PUBLIC "-//W3C//DTD SVG 1.1//EN" "http://www.w3.org/Graphics/SVG/1.1/DTD/svg11.dtd">
<svg width="100%" height="100%" viewBox="0 0 2161 2160" version="1.1" xmlns="http://www.w3.org/2000/svg" xmlns:xlink="http://www.w3.org/1999/xlink" xml:space="preserve" xmlns:serif="http://www.serif.com/" style="fill-rule:evenodd;clip-rule:evenodd;stroke-linecap:round;stroke-linejoin:round;stroke-miterlimit:1.5;">
    <g transform="matrix(1,0,0,1,-2370,0)">
        <g id="Black_Logo" transform="matrix(1.125,0,0,1.125,2370.31,0)">
            <rect x="0" y="0" width="1920" height="1920" style="fill:none;"/>
            <g transform="matrix(1.01977,0,0,0.888889,-42.6355,-14.4028)">
                <path d="M1409.53,661.465C1409.53,621.682 1395.75,583.529 1371.23,555.399C1346.71,527.268 1313.46,511.465 1278.78,511.465L687.619,511.465C652.942,511.465 619.686,527.268 595.165,555.399C570.645,583.529 556.87,621.682 556.87,661.465L556.87,1533.22C556.87,1573 570.645,1611.15 595.165,1639.28C619.686,1667.41 652.942,1683.22 687.619,1683.22L1278.78,1683.22C1313.46,1683.22 1346.71,1667.41 1371.23,1639.28C1395.75,1611.15 1409.53,1573 1409.53,1533.22L1409.53,661.465Z" style="fill:white;"/>
                <path d="M1409.53,661.465C1409.53,621.682 1395.75,583.529 1371.23,555.399C1346.71,527.268 1313.46,511.465 1278.78,511.465L687.619,511.465C652.942,511.465 619.686,527.268 595.165,555.399C570.645,583.529 556.87,621.682 556.87,661.465L556.87,1533.22C556.87,1573 570.645,1611.15 595.165,1639.28C619.686,1667.41 652.942,1683.22 687.619,1683.22L1278.78,1683.22C1313.46,1683.22 1346.71,1667.41 1371.23,1639.28C1395.75,1611.15 1409.53,1573 1409.53,1533.22L1409.53,661.465ZM1357.23,661.465L1357.23,1533.22C1357.23,1557.09 1348.96,1579.98 1334.25,1596.86C1319.54,1613.74 1299.59,1623.22 1278.78,1623.22L687.619,1623.22C666.813,1623.22 646.859,1613.74 632.147,1596.86C617.435,1579.98 609.17,1557.09 609.17,1533.22L609.17,661.465C609.17,637.595 617.435,614.703 632.147,597.825C646.859,580.947 666.813,571.465 687.619,571.465L1278.78,571.465C1299.59,571.465 1319.54,580.947 1334.25,597.825C1348.96,614.703 1357.23,637.595 1357.23,661.465Z"/>
            </g>
            <g transform="matrix(5.06494e-17,-0.827168,0.484613,2.9674e-17,403.016,2055.74)">
                <path d="M2073.53,783.173C2082.97,822.763 2080.26,867.781 2066.28,903.253C2052.3,938.726 2028.9,960 2003.86,960L645.531,960C620.487,960 597.085,938.726 583.109,903.253C569.134,867.781 566.418,822.763 575.864,783.173C604.015,665.201 640.203,513.542 664.617,411.228C681.099,342.154 720.444,296.992 764.141,296.992C987.054,296.992 1662.34,296.992 1885.25,296.992C1928.94,296.992 1968.29,342.154 1984.77,411.228C2009.19,513.542 2045.38,665.201 2073.53,783.173Z" style="stroke:black;stroke-width:78.68px;"/>
            </g>
            <g transform="matrix(0.83446,0,0,0.835329,222.531,-1604.11)">
                <path d="M857.639,2773.98C857.639,2773.98 933.882,2757.13 966.053,2808.21C1031.81,2912.62 1208.34,2898.99 1204.75,2943.21C1188.88,3138.38 1149.81,3268.55 1132.99,3280.83C1036.72,3351.1 857.639,3370.25 857.639,3370.25L857.639,2773.98Z" style="stroke:black;stroke-width:42.59px;"/>
            </g>
            <g transform="matrix(0.888889,0,0,0.888889,84.8633,-1746.79)">
                <path d="M951.63,2884.16C1002.22,2883.87 1022.69,2886.61 1053.36,2894.44C1093.53,2904.68 1118.21,2932.43 1203.78,2953.57" style="fill:none;stroke:white;stroke-width:20px;"/>
            </g>
            <g transform="matrix(0.888889,0,0,0.888889,-12.9923,127.339)">
                <path d="M1061.72,470.135L1061.72,1403.35" style="fill:none;stroke:white;stroke-width:60px;"/>
            </g>
        </g>
    </g>
</svg>
