<?xml version="1.0" encoding="UTF-8" standalone="no"?><!DOCTYPE svg PUBLIC "-//W3C//DTD SVG 1.1//EN" "http://www.w3.org/Graphics/SVG/1.1/DTD/svg11.dtd"><svg width="100%" height="100%" viewBox="0 0 4003 2253" version="1.1" xmlns="http://www.w3.org/2000/svg" xmlns:xlink="http://www.w3.org/1999/xlink" xml:space="preserve" xmlns:serif="http://www.serif.com/" style="fill-rule:evenodd;clip-rule:evenodd;stroke-linecap:round;stroke-linejoin:round;stroke-miterlimit:1.5;"><rect id="Mission" x="0.323" y="1.806" width="4000" height="2250" style="fill:none;"/><path d="M795.198,1764.84l-147.564,-0l-0,-779.435l478.916,-454.97l478.915,454.97l0,779.435l-478.915,-0l-0,-500.888l-331.352,-0l-0,500.888Z" style="fill:#ebebeb;stroke:#ebebeb;stroke-width:83.33px;"/><circle cx="2906.25" cy="309.359" r="221.074" style="fill:url(#_Linear1);"/><g><rect x="2108.64" y="530.614" width="642.304" height="125.178" style="fill:#ebebeb;stroke:#ebebeb;stroke-width:83.33px;"/><circle cx="2125.5" cy="530.614" r="125.178" style="fill:#ebebeb;stroke:#ebebeb;stroke-width:83.33px;"/><circle cx="2375.86" cy="440.487" r="180.254" style="fill:#ebebeb;stroke:#ebebeb;stroke-width:83.33px;"/><circle cx="2750.94" cy="565.665" r="90.127" style="fill:#ebebeb;stroke:#ebebeb;stroke-width:83.33px;"/><circle cx="2625.76" cy="495.562" r="125.178" style="fill:#ebebeb;stroke:#ebebeb;stroke-width:83.33px;"/></g><g><rect x="2683.35" y="1457.66" width="45.063" height="269.725" style="stroke:#000;stroke-width:83.33px;"/><path d="M2784.04,1312.88c-0,-16.879 -6.705,-33.067 -18.641,-45.002c-11.935,-11.935 -28.123,-18.64 -45.002,-18.64l-29.046,-0c-16.88,-0 -33.067,6.705 -45.003,18.64c-11.935,11.935 -18.64,28.123 -18.64,45.002c-0,79.747 -0,206.083 -0,206.083l156.332,-0c-0,-0 -0,-126.336 -0,-206.083Z" style="stroke:#000;stroke-width:83.33px;"/><circle cx="2705.88" cy="1076.46" r="50.349" style="stroke:#000;stroke-width:83.33px;"/></g><path d="M216.61,1764.84l3585.88,-0" style="fill:none;stroke:#000;stroke-width:83.33px;"/><path d="M1302.76,1361.25c0,-27.888 -22.607,-50.496 -50.495,-50.496c-23.597,0 -51.624,0 -75.221,0c-27.888,0 -50.495,22.608 -50.495,50.496c-0,33.548 -0,77.427 -0,110.975c-0,27.888 22.607,50.496 50.495,50.496c23.597,-0 51.624,-0 75.221,-0c27.888,-0 50.495,-22.608 50.495,-50.496c0,-33.548 0,-77.427 0,-110.975Z" style="fill:url(#_Linear2);"/><path d="M2802.41,322.19l60.674,60.674l147.01,-147.011" style="fill:none;stroke:#fff;stroke-width:41.67px;"/><defs><linearGradient id="_Linear1" x1="0" y1="0" x2="1" y2="0" gradientUnits="userSpaceOnUse" gradientTransform="matrix(442.147,442.147,-442.147,442.147,2685.18,88.285)"><stop offset="0" style="stop-color:#009cff;stop-opacity:1"/><stop offset="1" style="stop-color:#dc00ff;stop-opacity:1"/></linearGradient><linearGradient id="_Linear2" x1="0" y1="0" x2="1" y2="0" gradientUnits="userSpaceOnUse" gradientTransform="matrix(176.212,211.967,-254.976,211.967,1126.55,1310.75)"><stop offset="0" style="stop-color:#009cff;stop-opacity:1"/><stop offset="1" style="stop-color:#dc00ff;stop-opacity:1"/></linearGradient></defs></svg>