<?xml version="1.0" encoding="UTF-8" standalone="no"?><!DOCTYPE svg PUBLIC "-//W3C//DTD SVG 1.1//EN" "http://www.w3.org/Graphics/SVG/1.1/DTD/svg11.dtd"><svg width="100%" height="100%" viewBox="0 0 4003 2253" version="1.1" xmlns="http://www.w3.org/2000/svg" xmlns:xlink="http://www.w3.org/1999/xlink" xml:space="preserve" xmlns:serif="http://www.serif.com/" style="fill-rule:evenodd;clip-rule:evenodd;stroke-linecap:round;stroke-linejoin:round;stroke-miterlimit:1.5;"><rect id="Product" x="0.323" y="0.698" width="4000" height="2250" style="fill:none;"/><path d="M768.321,960.255c0,-80.256 -65.06,-145.317 -145.317,-145.317c-100.547,-0 -233.818,-0 -334.365,-0c-80.257,-0 -145.318,65.061 -145.318,145.317l0,1060.05c0,80.257 65.061,145.317 145.318,145.317l334.365,0c80.257,0 145.317,-65.06 145.317,-145.317c0,-259.666 0,-800.386 0,-1060.05Z"/><path d="M768.321,960.255c0,-80.256 -65.06,-145.317 -145.317,-145.317c-100.547,-0 -233.818,-0 -334.365,-0c-80.257,-0 -145.318,65.061 -145.318,145.317l0,1060.05c0,80.257 65.061,145.317 145.318,145.317l334.365,0c80.257,0 145.317,-65.06 145.317,-145.317c0,-259.666 0,-800.386 0,-1060.05Zm-83.333,0l0,1060.05c-0,34.233 -27.751,61.984 -61.984,61.984c-100.547,0 -233.818,0 -334.365,0c-34.233,0 -61.984,-27.751 -61.984,-61.984c-0,-259.667 -0,-800.386 -0,-1060.05c-0,-34.233 27.751,-61.984 61.984,-61.984c-0,0 334.271,0 334.365,0c34.233,0 61.984,27.751 61.984,61.984Z"/><path d="M288.216,1293.76l-61.741,-35.646" style="fill:none;stroke:#ebebeb;stroke-width:41.67px;"/><path d="M359.054,1222.92l-35.646,-61.741" style="fill:none;stroke:#ebebeb;stroke-width:41.67px;"/><path d="M455.821,1196.99l0,-71.292" style="fill:none;stroke:#ebebeb;stroke-width:41.67px;"/><path d="M552.588,1222.92l35.646,-61.741" style="fill:none;stroke:#ebebeb;stroke-width:41.67px;"/><path d="M623.427,1293.76l61.74,-35.646" style="fill:none;stroke:#ebebeb;stroke-width:41.67px;"/><path d="M3857.33,234.568c-0,-80.257 -65.061,-145.318 -145.318,-145.318c-100.546,0 -233.818,0 -334.365,0c-80.256,0 -145.317,65.061 -145.317,145.318c-0,259.666 -0,800.386 -0,1060.05c-0,80.257 65.061,145.318 145.317,145.318c100.547,-0 233.819,-0 334.365,-0c80.257,-0 145.318,-65.061 145.318,-145.318c-0,-259.666 -0,-800.386 -0,-1060.05Z"/><path d="M3857.33,234.568c-0,-80.257 -65.061,-145.318 -145.318,-145.318c-100.546,0 -233.818,0 -334.365,0c-80.256,0 -145.317,65.061 -145.317,145.318l-0,1060.05c-0,80.257 65.061,145.318 145.317,145.318c100.547,-0 233.819,-0 334.365,-0c80.257,-0 145.318,-65.061 145.318,-145.318c-0,-259.666 -0,-800.386 -0,-1060.05Zm-83.334,-0l0,1060.05c0,34.233 -27.751,61.985 -61.984,61.985c0,-0 -334.365,-0 -334.365,-0c-34.233,-0.001 -61.984,-27.752 -61.984,-61.985c0,-259.666 0,-800.386 0,-1060.05c0,-34.233 27.751,-61.984 61.984,-61.984c0,-0 334.365,-0 334.365,-0c34.233,-0 61.984,27.751 61.984,61.984Z"/><path d="M3134.16,231.089c-0,-80.257 -65.061,-145.318 -145.318,-145.318c-290.421,0 -939.515,0 -1229.94,0c-80.257,0 -145.318,65.061 -145.318,145.318c0,259.666 0,800.386 0,1060.05c0,80.257 65.061,145.318 145.318,145.318c290.421,-0 939.515,-0 1229.94,-0c80.257,-0 145.318,-65.061 145.318,-145.318l-0,-1060.05Z" style="fill:url(#_Linear1);"/><g><g id="Mask"><clipPath id="_clip2"><rect x="2372.61" y="310.244" width="409.532" height="901.743"/></clipPath><g clip-path="url(#_clip2)"><path d="M2320.8,401.821c0,-0 83.985,-19.851 119.423,40.336c72.431,123.015 266.889,106.957 262.93,159.064c-17.476,229.956 -60.519,383.324 -79.047,397.793c-106.034,82.801 -303.306,105.365 -303.306,105.365l0,-702.558Z" style="stroke:#000;stroke-width:83.33px;"/><path d="M2310.98,548.262c59.366,-0.358 83.381,3.076 119.373,12.888c47.125,12.848 76.089,47.633 176.492,74.138" style="fill:none;stroke:#ebebeb;stroke-width:29.17px;"/><path d="M2300.86,310.244l0,901.742" style="fill:none;stroke:#fff;stroke-width:83.33px;"/></g></g><g id="Mask1" serif:id="Mask"><clipPath id="_clip3"><rect x="1965.62" y="310.244" width="409.532" height="901.743"/></clipPath><g clip-path="url(#_clip3)"><path d="M2426.95,401.821c-0,-0 -83.985,-19.851 -119.423,40.336c-72.431,123.015 -266.89,106.957 -262.93,159.064c17.476,229.956 60.519,383.324 79.047,397.793c106.034,82.801 303.306,105.365 303.306,105.365l-0,-702.558Z" style="stroke:#000;stroke-width:83.33px;"/><path d="M2436.77,548.262c-59.366,-0.358 -83.381,3.076 -119.373,12.888c-47.125,12.848 -76.089,47.633 -176.492,74.138" style="fill:none;stroke:#ebebeb;stroke-width:29.17px;"/><path d="M2446.89,310.244l-0,901.742" style="fill:none;stroke:#fff;stroke-width:83.33px;"/></g></g></g><path d="M1030.96,1540.62c-80.256,0 -145.317,65.061 -145.317,145.318l0,334.365c0,80.257 65.061,145.317 145.317,145.317c290.468,0 939.731,0 1230.2,0c80.256,0 145.317,-65.06 145.317,-145.317l0,-334.365c0,-80.257 -65.061,-145.318 -145.317,-145.318l-1230.2,0Z"/><path d="M1030.96,1540.62c-80.256,0 -145.317,65.061 -145.317,145.318l0,334.365c0,80.257 65.061,145.317 145.317,145.317c290.468,0 939.731,0 1230.2,0c80.256,0 145.317,-65.06 145.317,-145.317c0,-100.547 0,-233.818 0,-334.365c0,-80.257 -65.061,-145.318 -145.317,-145.318l-1230.2,0Zm0,83.334l1230.2,-0c34.233,-0 61.984,27.751 61.984,61.984c0,-0 0,334.365 0,334.365c-0,34.233 -27.751,61.984 -61.984,61.984c-290.468,0 -939.731,0 -1230.2,0c-34.232,0 -61.984,-27.751 -61.984,-61.984c0,-0 0,-334.365 0,-334.365c0,-34.233 27.752,-61.984 61.984,-61.984Z"/><path d="M768.321,231.089c0,-80.257 -65.061,-145.318 -145.317,-145.318l-334.365,0c-80.257,0 -145.318,65.061 -145.318,145.318c0,100.546 0,233.818 0,334.365c0,80.256 65.061,145.317 145.318,145.317l334.365,0c80.256,0 145.317,-65.061 145.317,-145.317l0,-334.365Z"/><path d="M768.321,231.089c0,-80.257 -65.061,-145.318 -145.317,-145.318l-334.365,0c-80.257,0 -145.318,65.061 -145.318,145.318c0,100.546 0,233.818 0,334.365c0,80.256 65.061,145.317 145.318,145.317l334.365,0c80.256,0 145.317,-65.061 145.317,-145.317l0,-334.365Zm-83.333,-0l0,334.365c-0,34.233 -27.751,61.984 -61.984,61.984c-0,-0 -334.365,-0 -334.365,-0c-34.233,-0 -61.984,-27.751 -61.984,-61.984c-0,-0 -0,-334.365 -0,-334.365c-0,-34.233 27.751,-61.984 61.984,-61.984c100.547,-0 233.818,-0 334.365,-0c34.233,-0 61.984,27.751 61.984,61.984Z"/><path d="M1510.64,231.089c-0,-80.257 -65.061,-145.318 -145.317,-145.318l-334.366,0c-80.256,0 -145.317,65.061 -145.317,145.318l0,334.365c0,80.256 65.061,145.317 145.317,145.317l334.366,0c80.256,0 145.317,-65.061 145.317,-145.317l0,-334.365Z"/><path d="M1510.64,231.089c-0,-80.257 -65.061,-145.318 -145.317,-145.318l-334.366,0c-80.256,0 -145.317,65.061 -145.317,145.318l0,334.365c0,80.256 65.061,145.317 145.317,145.317l334.366,0c80.256,0 145.317,-65.061 145.317,-145.317l0,-334.365Zm-83.333,-0l-0,334.365c-0,34.233 -27.752,61.984 -61.984,61.984c-0.001,-0 -334.365,-0 -334.365,-0c-34.233,-0 -61.985,-27.751 -61.985,-61.984c0,-0 0,-334.365 0,-334.365c0,-34.233 27.752,-61.984 61.984,-61.984c100.547,-0 233.819,-0 334.365,-0c34.233,-0 61.985,27.751 61.985,61.984Z"/><path d="M3134.16,1685.94c-0,-80.257 -65.061,-145.318 -145.318,-145.318l-334.365,0c-80.256,0 -145.317,65.061 -145.317,145.318l-0,334.365c-0,80.257 65.061,145.317 145.317,145.317l334.365,0c80.257,0 145.318,-65.06 145.318,-145.317c-0,-100.547 -0,-233.818 -0,-334.365Z"/><path d="M3134.16,1685.94c-0,-80.257 -65.061,-145.318 -145.318,-145.318l-334.365,0c-80.256,0 -145.317,65.061 -145.317,145.318l-0,334.365c-0,80.257 65.061,145.317 145.317,145.317l334.365,0c80.257,0 145.318,-65.06 145.318,-145.317c-0,-100.547 -0,-233.818 -0,-334.365Zm-83.334,-0l0,334.365c0,34.233 -27.751,61.984 -61.984,61.984c-100.547,0 -233.818,0 -334.365,0c-34.233,0 -61.984,-27.751 -61.984,-61.984c0,-0 0,-334.365 0,-334.365c0,-34.233 27.751,-61.984 61.984,-61.984c0,-0 334.365,-0 334.365,-0c34.233,-0 61.984,27.751 61.984,61.984Z"/><path d="M1510.64,960.255c-0,-80.256 -65.061,-145.317 -145.317,-145.317l-334.366,-0c-80.256,-0 -145.317,65.061 -145.317,145.317l0,334.365c0,80.257 65.061,145.318 145.317,145.318l334.366,-0c80.256,-0 145.317,-65.061 145.317,-145.318l0,-334.365Z"/><path d="M1510.64,960.255c-0,-80.256 -65.061,-145.317 -145.317,-145.317l-334.366,-0c-80.256,-0 -145.317,65.061 -145.317,145.317l0,334.365c0,80.257 65.061,145.318 145.317,145.318l334.366,-0c80.256,-0 145.317,-65.061 145.317,-145.318l0,-334.365Zm-83.333,0l-0,334.365c-0,34.233 -27.752,61.984 -61.984,61.985c-100.547,-0 -233.819,-0 -334.366,-0c-34.232,-0 -61.984,-27.752 -61.984,-61.985c0,0 0,-334.365 0,-334.365c0,-34.233 27.752,-61.984 61.984,-61.984c0.001,0 334.271,0 334.366,0c34.232,0 61.984,27.751 61.984,61.984Z"/><circle cx="1198.14" cy="398.271" r="221.074" style="fill:#fff;"/><circle cx="455.821" cy="398.271" r="221.074" style="fill:#fff;"/><circle cx="455.821" cy="398.271" r="25.472"/><path d="M3857.33,1685.94c-0,-80.257 -65.061,-145.318 -145.318,-145.318c-100.546,0 -233.818,0 -334.365,0c-80.256,0 -145.317,65.061 -145.317,145.318c-0,100.547 -0,233.818 -0,334.365c-0,80.257 65.061,145.317 145.317,145.317c100.547,0 233.819,0 334.365,0c80.257,0 145.318,-65.06 145.318,-145.317c-0,-100.547 -0,-233.818 -0,-334.365Z"/><path d="M3857.33,1685.94c-0,-80.257 -65.061,-145.318 -145.318,-145.318c-100.546,0 -233.818,0 -334.365,0c-80.256,0 -145.317,65.061 -145.317,145.318c-0,100.547 -0,233.818 -0,334.365c-0,80.257 65.061,145.317 145.317,145.317c100.547,0 233.819,0 334.365,0c80.257,0 145.318,-65.06 145.318,-145.317c-0,-100.547 -0,-233.818 -0,-334.365Zm-83.334,-0l0,334.365c0,34.233 -27.751,61.984 -61.984,61.984c-100.546,0 -233.818,0 -334.365,0c-34.233,0 -61.984,-27.751 -61.984,-61.984c0,-0 0,-334.271 0,-334.365c0,-34.233 27.751,-61.984 61.984,-61.984c0,-0 334.365,-0 334.365,-0c34.233,-0 61.984,27.751 61.984,61.984Z"/><text x="1126.01px" y="492.138px" style="font-family:'Asap-Bold', 'Asap', sans-serif;font-weight:700;font-size:266.667px;">1</text><path d="M500.287,358.135l61.207,-53.73" style="fill:none;stroke:#000;stroke-width:41.67px;"/><path d="M489.468,441.018l89.876,90.405" style="fill:none;stroke:#000;stroke-width:29.17px;"/><path d="M399.632,1589.51l-0,263.469" style="fill:none;stroke:#fff;stroke-width:41.67px;"/><g><path d="M2731.68,1829.8l0,131.734" style="fill:none;stroke:#fff;stroke-width:41.67px;"/><path d="M2911.64,1829.8l0,131.734" style="fill:none;stroke:#fff;stroke-width:41.67px;"/><rect x="2686.85" y="1796.87" width="269.634" height="65.867" style="fill:#fff;stroke:#fff;stroke-width:41.67px;"/><rect x="2731.68" y="1744.72" width="179.959" height="65.867" style="fill:#fff;stroke:#fff;stroke-width:41.67px;"/></g><rect x="1192.25" y="1823.25" width="77.689" height="190.711" style="fill:#fff;stroke:#fff;stroke-width:41.67px;"/><rect x="1330.57" y="1727.47" width="77.689" height="286.494" style="fill:#fff;stroke:#fff;stroke-width:41.67px;"/><rect x="1468.89" y="1918.61" width="77.689" height="95.355" style="fill:#fff;stroke:#fff;stroke-width:41.67px;"/><rect x="1607.21" y="1692.29" width="77.689" height="321.679" style="fill:#fff;stroke:#fff;stroke-width:41.67px;"/><rect x="1745.53" y="1766.57" width="77.689" height="247.399" style="fill:#fff;stroke:#fff;stroke-width:41.67px;"/><rect x="1883.86" y="1853.12" width="77.689" height="160.84" style="fill:#fff;stroke:#fff;stroke-width:41.67px;"/><rect x="2022.18" y="1727.47" width="77.689" height="286.494" style="fill:#fff;stroke:#fff;stroke-width:41.67px;"/><rect x="3429.62" y="1690.33" width="230.404" height="325.589" style="fill:#fff;stroke:#fff;stroke-width:41.67px;"/><path d="M512.503,1589.51l0,203.507" style="fill:none;stroke:#fff;stroke-width:41.67px;"/><path d="M342.952,1416.24c0.392,-54.859 50.817,-99.29 112.869,-99.29c62.296,-0 112.872,44.78 112.872,99.936l-0,98.12l49.253,-0l0,74.498l-324.249,-0l-0,-74.498l49.253,-0l-0,-98.12l0.002,-0.646Z" style="fill:#fff;stroke:#fff;stroke-width:41.67px;"/><clipPath id="_clip4"><rect id="wifi-logo-svgrepo-com.svg" x="3344.49" y="257.74" width="400.662" height="400.662"/></clipPath><g clip-path="url(#_clip4)"><g><circle cx="3544.82" cy="571.663" r="45.437" style="fill:#fff;stroke:#fff;stroke-width:1.1px;stroke-linecap:butt;stroke-miterlimit:2;"/><path d="M3544.83,450.496c-39.047,0 -75.926,18.994 -98.651,50.808c-6.484,9.075 -4.381,21.688 4.693,28.17c3.558,2.542 7.659,3.765 11.721,3.765c6.301,-0 12.509,-2.941 16.449,-8.458c15.161,-21.225 39.755,-33.896 65.787,-33.896c26.034,0 50.626,12.671 65.786,33.895c6.481,9.073 19.094,11.179 28.17,4.695c9.076,-6.482 11.178,-19.095 4.696,-28.17c-22.723,-31.816 -59.603,-50.809 -98.651,-50.809Z" style="fill:#fff;fill-rule:nonzero;stroke:#fff;stroke-width:1.1px;stroke-linecap:butt;stroke-miterlimit:2;"/><path d="M3544.83,374.769c-55.779,-0 -109.168,23.816 -146.482,65.34c-7.454,8.296 -6.773,21.064 1.524,28.519c3.858,3.467 8.683,5.174 13.491,5.174c5.531,-0.001 11.04,-2.259 15.027,-6.697c29.665,-33.013 72.107,-51.947 116.441,-51.947c44.334,-0 86.776,18.934 116.443,51.946c7.455,8.296 20.223,8.977 28.518,1.523c8.296,-7.455 8.977,-20.223 1.523,-28.518c-37.316,-41.526 -90.708,-65.34 -146.485,-65.34Z" style="fill:#fff;fill-rule:nonzero;stroke:#fff;stroke-width:1.1px;stroke-linecap:butt;stroke-miterlimit:2;"/><path d="M3739.37,380.704c-51.695,-52.662 -120.787,-81.664 -194.548,-81.664c-73.758,-0 -142.85,29.002 -194.547,81.666c-7.813,7.96 -7.695,20.744 0.264,28.557c3.931,3.859 9.039,5.784 14.145,5.783c5.23,0 10.459,-2.02 14.412,-6.047c44.042,-44.864 102.898,-69.571 165.726,-69.571c62.831,-0 121.687,24.707 165.725,69.569c7.814,7.96 20.599,8.077 28.558,0.265c7.959,-7.813 8.077,-20.598 0.265,-28.558Z" style="fill:#fff;fill-rule:nonzero;stroke:#fff;stroke-width:1.1px;stroke-linecap:butt;stroke-miterlimit:2;"/></g></g><path d="M3698.71,900.938c-0.719,-12.47 -10.935,-22.461 -23.418,-22.903c-14.153,-0.901 -59.959,-1.544 -73.212,-1.544c23.546,16.212 26.763,46.835 29.079,103.707c1.287,33.711 0,151.828 0,156.975l-0.643,32.167l-123.908,-124.036l0,-38.601l98.56,98.432c0.258,-19.558 0.515,-45.034 0.515,-68.195c-0,-22.645 -0.386,-43.104 -1.029,-54.04c-3.732,-61.89 -9.522,-90.969 -41.818,-102.42c-11.149,-3.476 -22.815,-5 -34.483,-4.504c-12.867,0 -101.262,0 -114.128,0.644c-12.623,0.338 -22.892,10.664 -23.161,23.289c-0.772,12.609 -0.9,246.657 0,259.524c0.644,12.609 10.294,22.131 23.161,22.903c14.153,0.772 60.088,0.9 73.34,0.9c-23.546,-16.212 -26.763,-46.835 -29.079,-103.706c-1.286,-33.712 0,-151.829 0,-156.976l0.644,-32.167l123.907,124.036l0,38.601l-98.688,-98.303c-0.258,19.558 -0.515,45.034 -0.515,68.195c0,22.645 0.386,43.103 1.029,54.04c3.732,61.89 9.522,90.969 41.818,102.291c9.907,3.603 19.171,4.375 34.483,4.633c12.867,-0 101.262,-0 114,-0.644c12.72,-0.203 23.144,-10.57 23.417,-23.289c0.644,-12.609 0.772,-246.142 0,-258.88l0.129,-0.129Z" style="fill:#fff;fill-rule:nonzero;"/><circle cx="3544.83" cy="1904.42" r="79.397" style="fill:#fff;stroke:#000;stroke-width:41.67px;"/><circle cx="3629.37" cy="1727.5" r="22.06"/><path d="M3465.43,1727.5l106.976,-0" style="fill:none;stroke:#000;stroke-width:41.67px;"/><path d="M1327.75,1108.93l-3.074,-4.642c-0,-37.013 -16.94,-50.938 -35.507,-61.729c6.21,-1.567 12.358,-3.074 13.926,-10.79c10.79,-3.075 12.358,-7.717 13.865,-12.358c3.074,-1.568 10.79,-6.149 10.79,-15.433c4.642,-3.074 7.716,-7.716 6.209,-13.865c4.642,-6.209 6.149,-10.85 4.642,-15.432c6.149,-7.716 3.074,-12.358 1.507,-16.999c4.642,-9.284 0,-18.507 -12.358,-17c-4.581,-7.716 -16.939,-6.149 -18.506,-6.149c-1.508,-3.074 -4.642,-4.642 -12.358,-3.074c-7.717,-4.642 -13.865,-4.642 -20.014,-1.568c-7.716,-6.148 -12.358,-1.507 -17,0c-9.283,-3.074 -10.79,1.568 -15.432,3.075c-9.284,-1.507 -12.358,3.134 -17,7.716l-4.581,-0c-13.925,7.716 -21.642,26.283 -24.716,33.999c-3.074,-9.283 -9.283,-26.283 -24.716,-33.999l-4.581,-0c-4.642,-4.582 -7.716,-9.223 -17,-7.716c-4.642,-1.507 -6.149,-6.149 -15.432,-3.075c-3.075,-1.507 -6.149,-3.074 -10.791,-3.074c-1.567,-0 -3.074,1.567 -6.209,3.074c-6.149,-3.074 -12.297,-3.074 -16.939,1.568c-7.716,-1.568 -10.791,1.507 -12.358,3.074c-1.567,0 -13.865,-1.567 -18.507,6.149c-13.925,-1.507 -18.507,7.716 -13.925,17c-3.074,4.641 -4.582,7.716 1.567,16.999c-3.074,3.075 -1.567,9.223 4.642,13.865c-1.567,6.149 0,10.791 6.149,15.432c-1.507,7.717 7.716,12.358 9.283,15.433c1.507,4.641 3.075,9.283 13.865,12.358c1.568,7.716 7.716,9.223 13.926,10.79c-20.075,10.791 -35.507,26.223 -35.507,61.729l-3.074,4.642c-21.642,13.865 -41.716,57.088 -10.851,92.594c1.567,10.791 4.642,18.507 7.716,27.79c4.642,35.446 33.999,52.446 41.716,54.013c10.79,9.223 23.148,16.94 40.087,23.149c15.433,15.432 32.432,21.581 49.372,21.581c16.999,-0 33.999,-6.149 49.431,-21.581c16.94,-6.209 29.298,-13.926 40.088,-23.149c7.716,-1.567 37.074,-18.567 41.655,-54.013c3.135,-9.283 6.209,-16.999 9.284,-27.79c33.939,-35.506 13.865,-78.729 -9.284,-92.594Zm-20.014,-6.209c-1.567,15.432 -75.654,-50.878 -63.296,-52.446c35.506,-6.148 64.804,13.865 63.296,52.446Zm-81.803,-152.756c0,3.075 1.507,4.642 1.507,6.149c4.642,-4.581 7.716,-9.223 12.358,-13.865c0,3.075 -1.507,4.642 1.568,7.716c3.074,-4.641 6.148,-7.716 12.357,-10.79c-3.134,4.642 0,6.149 1.507,7.716c4.642,-3.074 7.717,-6.209 15.433,-9.284c-1.507,3.075 -4.642,4.642 -1.507,7.717c4.581,-3.075 7.716,-4.642 18.506,-7.717c-1.567,3.075 -6.209,4.642 -4.641,7.717c4.641,-1.507 10.79,-3.075 16.999,-4.642c-3.134,3.135 -6.209,4.642 -3.134,6.209c6.209,-1.567 12.358,-4.642 20.074,-1.567l-4.642,4.641l18.567,0c-3.135,4.642 -6.209,7.717 -7.716,13.865l7.716,0c-3.135,9.284 -9.284,10.851 -10.851,13.926c1.567,1.507 4.642,1.507 9.284,-0c-3.075,6.148 -7.717,9.223 -12.358,13.865c1.567,1.567 3.074,1.567 7.716,-0c-4.642,4.641 -9.223,7.716 -13.865,12.357c1.507,1.568 4.642,1.568 7.716,1.568c-4.642,4.581 -12.358,7.716 -18.507,10.79c1.507,3.075 4.582,1.507 6.149,1.507c-4.642,3.135 -12.358,6.209 -18.507,7.717c1.507,1.567 3.075,3.134 6.149,3.134c-7.716,4.582 -18.506,1.507 -21.581,4.582c0,1.567 3.075,3.134 4.642,4.641c-12.358,0 -44.79,0 -50.939,-24.655c12.358,-13.925 33.939,-29.358 72.52,-49.432c-29.297,10.851 -57.087,23.149 -78.729,41.716c-24.655,-12.358 -7.716,-43.223 6.209,-55.581Zm-27.79,89.52c18.507,-0 41.655,13.865 41.655,27.79c0,12.298 -16.939,21.581 -41.655,21.581c-24.716,0 -41.655,-12.358 -41.655,-23.148c-0,-10.791 20.074,-26.223 41.655,-26.223Zm-94.161,-9.284c3.135,0 4.642,-1.507 6.209,-3.074c-7.716,-3.075 -15.432,-4.642 -20.074,-9.284c3.074,0 4.642,0 7.716,-1.507c-6.149,-3.074 -12.358,-6.209 -18.507,-10.79c3.075,-0 6.149,-0 7.716,-1.568c-4.641,-3.074 -9.283,-7.716 -13.925,-10.79l7.716,-0c-4.581,-6.209 -9.223,-9.284 -12.297,-15.432c3.074,1.507 6.149,1.507 9.223,-0c-1.507,-3.075 -9.223,-4.642 -12.358,-12.358l7.716,-0c-1.507,-6.149 -4.581,-10.791 -6.149,-13.865l18.507,-0l-4.642,-6.209c7.717,-1.507 15.433,-0 20.074,1.567c3.075,-1.567 0,-4.642 -3.074,-6.209c6.149,1.567 12.358,3.135 17,4.642c3.074,-3.075 -1.568,-4.642 -4.642,-7.717c10.79,1.568 13.865,4.642 18.507,7.717c3.074,-3.075 -0,-4.642 -1.568,-7.717c7.716,3.075 10.851,6.21 15.433,9.284c1.567,-1.567 3.134,-3.074 1.567,-7.716c3.074,3.074 7.716,6.149 10.791,10.79c3.074,-1.567 1.567,-4.641 1.567,-7.716c4.642,4.642 9.223,9.284 12.358,13.865c1.507,0 1.507,-3.074 1.507,-6.149c12.358,12.358 30.864,43.223 4.642,55.581c-21.582,-18.567 -49.372,-32.432 -78.729,-41.716c38.58,20.074 60.222,35.507 72.58,49.432c-6.209,24.655 -38.581,26.223 -50.939,24.655c3.074,-1.507 4.642,-3.074 4.642,-4.641c-1.568,-1.507 -10.851,-0 -18.567,-3.075Zm43.222,18.507c12.358,1.567 -61.729,67.938 -63.236,52.506c-1.567,-37.074 27.73,-58.655 63.236,-52.506Zm-78.668,146.607c-18.567,-15.432 -24.716,-57.088 9.223,-77.162c20.074,-6.148 7.716,83.371 -9.223,77.162Zm70.952,77.161c-10.79,6.209 -35.506,3.135 -52.446,-21.581c-12.357,-21.581 -10.79,-43.222 -1.567,-49.371c12.358,-7.716 32.432,3.074 46.297,20.074c12.358,13.865 18.507,41.655 7.716,50.878Zm-20.074,-94.1c-18.507,-12.358 -21.581,-40.149 -7.716,-63.297c15.432,-21.581 41.715,-30.865 60.222,-18.507c18.507,12.358 21.581,40.148 7.716,63.297c-13.925,23.148 -41.655,30.864 -60.222,18.507Zm78.729,137.323c-23.148,1.567 -44.73,-18.507 -44.73,-24.656c0,-9.283 27.73,-16.999 46.297,-16.999c18.507,-1.568 43.163,6.149 43.163,15.432c-0,6.149 -23.149,26.223 -44.73,26.223Zm46.297,-98.743c-0,23.149 -20.074,41.655 -44.73,41.655c-24.715,0 -46.297,-18.506 -46.297,-41.655c0,-23.148 20.014,-41.655 44.73,-41.655c26.223,0 46.297,18.507 46.297,41.655Zm-27.79,-58.655c-15.433,-21.581 -10.791,-50.938 7.716,-63.296c18.507,-12.298 46.297,-4.582 60.222,18.567c13.865,23.148 10.791,50.878 -7.716,63.236c-18.567,10.791 -46.297,3.075 -60.222,-18.507Zm92.594,92.594c-20.075,27.79 -46.297,27.79 -55.521,20.074c-10.85,-9.283 -3.134,-40.148 12.298,-57.087c15.432,-18.567 33.999,-30.865 44.79,-21.642c7.716,10.791 12.358,40.149 -1.567,58.655Zm13.925,-57.087c-17,7.716 -30.865,-81.803 -9.284,-77.162c33.939,18.507 27.79,61.73 9.284,77.162Z" style="fill:#fff;fill-rule:nonzero;"/><defs><linearGradient id="_Linear1" x1="0" y1="0" x2="1" y2="0" gradientUnits="userSpaceOnUse" gradientTransform="matrix(1528.7,1350.69,-1199.78,1357.91,1605.47,85.7712)"><stop offset="0" style="stop-color:#009cff;stop-opacity:1"/><stop offset="1" style="stop-color:#dc00ff;stop-opacity:1"/></linearGradient></defs></svg>