<?xml version="1.0" encoding="UTF-8" standalone="no"?>
<svg
   xmlns:dc="http://purl.org/dc/elements/1.1/"
   xmlns:cc="http://creativecommons.org/ns#"
   xmlns:rdf="http://www.w3.org/1999/02/22-rdf-syntax-ns#"
   xmlns:svg="http://www.w3.org/2000/svg"
   xmlns="http://www.w3.org/2000/svg"
   xmlns:xlink="http://www.w3.org/1999/xlink"
   xmlns:sodipodi="http://sodipodi.sourceforge.net/DTD/sodipodi-0.dtd"
   xmlns:inkscape="http://www.inkscape.org/namespaces/inkscape"
   enable-background="new 0 0 24 24"
   viewBox="0 0 13037.814 3986.3386"
   fill="#000000"
   width="611.14752"
   height="382.68851"
   version="1.1"
   id="svg86"
   sodipodi:docname="logo.svg"
   inkscape:export-filename="/home/jhewers/Documents/projects/CMask/images/logo.png"
   inkscape:export-xdpi="80.425751"
   inkscape:export-ydpi="80.425751"
   inkscape:version="1.0.1 (3bc2e813f5, 2020-09-07)">
  <metadata
     id="metadata92">
    <rdf:RDF>
      <cc:Work
         rdf:about="">
        <dc:format>image/svg+xml</dc:format>
        <dc:type
           rdf:resource="http://purl.org/dc/dcmitype/StillImage" />
        <dc:title></dc:title>
      </cc:Work>
    </rdf:RDF>
  </metadata>
  <defs
     id="defs90">
    <linearGradient
       inkscape:collect="always"
       id="linearGradient961">
      <stop
         style="stop-color:#ffca28;stop-opacity:1"
         offset="0"
         id="stop957" />
      <stop
         style="stop-color:#ff7043;stop-opacity:1"
         offset="1"
         id="stop959" />
    </linearGradient>
    <linearGradient
       inkscape:collect="always"
       xlink:href="#linearGradient961"
       id="linearGradient963"
       x1="10943.127"
       y1="6270.8877"
       x2="10925.319"
       y2="-1029.0518"
       gradientUnits="userSpaceOnUse"
       gradientTransform="translate(-4403.7595,-610.99731)" />
  </defs>
  <sodipodi:namedview
     pagecolor="#ffffff"
     bordercolor="#666666"
     borderopacity="1"
     objecttolerance="10"
     gridtolerance="10"
     guidetolerance="10"
     inkscape:pageopacity="0"
     inkscape:pageshadow="2"
     inkscape:window-width="1920"
     inkscape:window-height="1027"
     id="namedview88"
     showgrid="false"
     showguides="true"
     inkscape:guide-bbox="true"
     inkscape:zoom="0.93098959"
     inkscape:cx="317.17732"
     inkscape:cy="206.61384"
     inkscape:window-x="0"
     inkscape:window-y="283"
     inkscape:window-maximized="1"
     inkscape:current-layer="svg86"
     fit-margin-left="20"
     fit-margin-right="20"
     fit-margin-top="20"
     fit-margin-bottom="20">
    <sodipodi:guide
       position="8708.8527,1695.9661"
       orientation="0,-1"
       id="guide925" />
    <sodipodi:guide
       position="6527.1786,2276.6555"
       orientation="-0.99999702,-0.002439366"
       id="guide927" />
  </sodipodi:namedview>
  <rect
     fill="none"
     height="14621.376"
     width="14621.376"
     id="rect82"
     x="-755.28699"
     y="-2664.4224"
     style="stroke-width:609.223" />
  <path
     d="m 11088.087,-1662.1749 c -798.084,0 -1443.8605,615.3164 -1510.8755,1401.21539 -1145.341,-304.612 -1730.196,-1096.60329 -3058.304,-1096.60329 -1334.2011,0 -1912.9639,791.99129 -3058.305,1096.60329 -67.0147,-779.80679 -712.7921,-1401.21539 -1510.8756,-1401.21539 -840.7291,0 -1523.06007,682.33099 -1523.06007,1523.06019 V 165.4973 c 0,3655.344 2193.20647,4758.0396 3972.14067,4861.6076 615.3162,389.9033 1340.293,621.4086 2120.1,621.4086 779.806,0 1504.783,-231.5052 2120.099,-621.4085 C 10417.94,4923.5368 12611.147,3820.8413 12611.147,165.4973 v -304.61201 c 0,-840.7292 -682.331,-1523.06019 -1523.06,-1523.06019 z M 1340.5029,165.4973 v -304.61201 c 0,-335.0732 274.1508,-609.224 609.224,-609.224 335.0732,0 609.224,274.1508 609.224,609.224 V 1688.5573 c 0,779.8067 231.5051,1504.7833 615.3163,2120.0995 C 2248.2467,3376.1078 1340.5029,2389.1649 1340.5029,165.4973 Z m 2132.284,1523.06 V 683.33772 c 682.3309,-140.1215 1187.9869,-420.36458 1620.5359,-657.96194 499.5637,-268.05859 859.0057,-469.10249 1425.5847,-469.10249 566.578,0 926.02,201.0439 1425.584,475.19473 432.549,237.59736 938.205,511.7482 1620.536,657.9619 V 1694.6496 c 0,1681.4582 -1364.662,3046.12 -3046.12,3046.12 -1681.4588,0 -3046.1206,-1370.7541 -3046.1206,-3052.2123 z m 8224.5241,-1523.06 c 0,2223.6676 -907.744,3210.6105 -1833.7645,3643.1595 389.9035,-615.3162 615.3165,-1340.2928 615.3165,-2120.0995 V -139.11471 c 0,-335.0732 274.15,-609.224 609.224,-609.224 335.073,0 609.224,274.1508 609.224,609.224 z m -5976.4875,901.6515 c -268.0585,158.3983 -584.855,341.1655 -1029.5885,463.0103 V 896.56615 C 4983.6625,792.99802 5202.9832,665.06102 5410.1193,543.21622 5739.1005,348.26451 6049.8045,165.4973 6518.9075,165.4973 c 469.102,0 773.714,182.76721 1096.603,377.71892 207.136,121.8448 432.549,255.8741 731.069,359.44213 v 633.59295 c -456.918,-127.937 -767.623,-310.7042 -1041.773,-475.1947 -280.244,-164.49045 -487.38,-286.33528 -785.899,-286.33528 -298.52,0 -511.749,121.84483 -798.084,292.42748 z"
     id="path84"
     style="fill:url(#linearGradient963);fill-opacity:1;stroke-width:609.224" />
</svg>
