<?xml version="1.0" encoding="UTF-8" standalone="no"?>
<svg
   xmlns:dc="http://purl.org/dc/elements/1.1/"
   xmlns:cc="http://creativecommons.org/ns#"
   xmlns:rdf="http://www.w3.org/1999/02/22-rdf-syntax-ns#"
   xmlns:svg="http://www.w3.org/2000/svg"
   xmlns="http://www.w3.org/2000/svg"
   xmlns:sodipodi="http://sodipodi.sourceforge.net/DTD/sodipodi-0.dtd"
   xmlns:inkscape="http://www.inkscape.org/namespaces/inkscape"
   enable-background="new 0 0 24 24"
   viewBox="0 0 21845.333 5208.3333"
   fill="#000000"
   width="1024"
   height="500"
   version="1.1"
   id="svg86"
   sodipodi:docname="logo.svg"
   inkscape:export-filename="/home/jhewers/Documents/projects/CMask/images/logo.png"
   inkscape:export-xdpi="96"
   inkscape:export-ydpi="96"
   inkscape:version="1.0.1 (3bc2e813f5, 2020-09-07)">
  <metadata
     id="metadata92">
    <rdf:RDF>
      <cc:Work
         rdf:about="">
        <dc:format>image/svg+xml</dc:format>
        <dc:type
           rdf:resource="http://purl.org/dc/dcmitype/StillImage" />
        <dc:title></dc:title>
      </cc:Work>
    </rdf:RDF>
  </metadata>
  <defs
     id="defs90" />
  <sodipodi:namedview
     pagecolor="#ffffff"
     bordercolor="#666666"
     borderopacity="1"
     objecttolerance="10"
     gridtolerance="10"
     guidetolerance="10"
     inkscape:pageopacity="0"
     inkscape:pageshadow="2"
     inkscape:window-width="1920"
     inkscape:window-height="1027"
     id="namedview88"
     showgrid="false"
     showguides="true"
     inkscape:guide-bbox="true"
     inkscape:zoom="0.93098959"
     inkscape:cx="596.46838"
     inkscape:cy="285.91348"
     inkscape:window-x="0"
     inkscape:window-y="283"
     inkscape:window-maximized="1"
     inkscape:current-layer="svg86">
    <sodipodi:guide
       position="8661.1026,2677.0642"
       orientation="0,-1"
       id="guide925" />
    <sodipodi:guide
       position="10930.938,3253.6158"
       orientation="-0.99999702,-0.002439366"
       id="guide927" />
  </sodipodi:namedview>
  <rect
     style="fill:#f5f5f5;fill-opacity:1;stroke-width:935.871;stop-color:#000000"
     id="rect923"
     width="21845.332"
     height="10666.666"
     x="0.00048437499"
     y="-2729.1663"
     ry="2445.1733" />
  <rect
     fill="none"
     height="14621.376"
     width="14621.376"
     id="rect82"
     x="3648.4727"
     y="-2162.5918"
     style="stroke-width:609.223" />
  <g
     id="g921"
     transform="matrix(609.22402,0,0,609.22402,3611.9783,-4706.5216)">
    <path
       style="fill:#29b6f6;fill-opacity:1;stroke:#000000;stroke-width:0.5px;stroke-linecap:butt;stroke-linejoin:miter;stroke-opacity:1"
       d="M 2.7371456,8.3579865 4.2708319,6.9059045 6.102962,7.991065 6.59509,9.3457955 10.878551,7.6431675 13.87298,7.419368 17.507182,9.087186 17.379861,14.314945 15.169006,16.288081 12.251378,17.084165 8.643152,15.855133 6.70717,14.300735 6.68055,11.070103 6.530515,9.324519 5.974408,7.279194 3.5475453,7.3698215 Z"
       id="path94" />
    <path
       d="M 19.5,6 C 18.19,6 17.13,7.01 17.02,8.3 15.14,7.8 14.18,6.5 12,6.5 9.81,6.5 8.86,7.8 6.98,8.3 6.87,7.02 5.81,6 4.5,6 3.12,6 2,7.12 2,8.5 V 9 c 0,6 3.6,7.81 6.52,7.98 1.01,0.64 2.2,1.02 3.48,1.02 1.28,0 2.47,-0.38 3.48,-1.02 C 18.4,16.81 22,15 22,9 V 8.5 C 22,7.12 20.88,6 19.5,6 Z M 3.5,9 V 8.5 c 0,-0.55 0.45,-1 1,-1 0.55,0 1,0.45 1,1 v 3 c 0,1.28 0.38,2.47 1.01,3.48 C 4.99,14.27 3.5,12.65 3.5,9 Z M 7,11.5 V 9.85 C 8.12,9.62 8.95,9.16 9.66,8.77 10.48,8.33 11.07,8 12,8 c 0.93,0 1.52,0.33 2.34,0.78 0.71,0.39 1.54,0.84 2.66,1.08 v 1.65 c 0,2.76 -2.24,5 -5,5 -2.76,0 -5,-2.25 -5,-5.01 z M 20.5,9 c 0,3.65 -1.49,5.27 -3.01,5.98 0.64,-1.01 1.01,-2.2 1.01,-3.48 v -3 c 0,-0.55 0.45,-1 1,-1 0.55,0 1,0.45 1,1 V 9 Z m -9.81,1.48 C 10.25,10.74 9.73,11.04 9,11.24 V 10.2 C 9.48,10.03 9.84,9.82 10.18,9.62 10.72,9.3 11.23,9 12,9 c 0.77,0 1.27,0.3 1.8,0.62 0.34,0.2 0.71,0.42 1.2,0.59 v 1.04 C 14.25,11.04 13.74,10.74 13.29,10.47 12.83,10.2 12.49,10 12,10 c -0.49,0 -0.84,0.2 -1.31,0.48 z"
       id="path84" />
  </g>
</svg>
