<?xml version="1.0" encoding="UTF-8" standalone="no"?><!DOCTYPE svg PUBLIC "-//W3C//DTD SVG 1.1//EN" "http://www.w3.org/Graphics/SVG/1.1/DTD/svg11.dtd"><svg width="100%" height="100%" viewBox="0 0 1921 1081" version="1.1" xmlns="http://www.w3.org/2000/svg" xmlns:xlink="http://www.w3.org/1999/xlink" xml:space="preserve" xmlns:serif="http://www.serif.com/" style="fill-rule:evenodd;clip-rule:evenodd;stroke-linecap:round;stroke-linejoin:round;stroke-miterlimit:1.5;"><rect id="Gradient_Banner" x="0.389" y="0.206" width="1920" height="1080" style="fill:none;"/><clipPath id="_clip1"><rect x="0.389" y="0.206" width="1920" height="1080"/></clipPath><g clip-path="url(#_clip1)"><path d="M467.916,413.3c0,-19.891 -7.902,-38.968 -21.967,-53.033c-14.065,-14.065 -33.142,-21.967 -53.033,-21.967l-187.11,0c-19.891,0 -38.968,7.902 -53.033,21.967c-14.065,14.065 -21.967,33.142 -21.967,53.033l0,253.811c0,19.891 7.902,38.968 21.967,53.033c14.065,14.065 33.142,21.967 53.033,21.967l187.11,0c19.891,0 38.968,-7.902 53.033,-21.967c14.065,-14.065 21.967,-33.142 21.967,-53.033l0,-253.811Z"/><g><rect x="0.389" y="0.206" width="1920" height="1080" style="fill:url(#_Linear2);"/><g><g><path d="M467.916,413.692c0,-19.891 -7.902,-38.968 -21.967,-53.033c-14.065,-14.065 -33.142,-21.967 -53.033,-21.967l-187.11,0c-19.891,0 -38.968,7.902 -53.033,21.967c-14.065,14.065 -21.967,33.142 -21.967,53.033l0,253.811c0,19.891 7.902,38.968 21.967,53.033c14.065,14.065 33.142,21.967 53.033,21.967l187.11,0c19.891,0 38.968,-7.902 53.033,-21.967c14.065,-14.065 21.967,-33.142 21.967,-53.033l0,-253.811Zm-25,0l0,253.811c0,13.261 -5.268,25.979 -14.645,35.355c-9.376,9.377 -22.094,14.645 -35.355,14.645l-187.11,0c-13.261,0 -25.978,-5.268 -35.355,-14.645c-9.377,-9.376 -14.645,-22.094 -14.645,-35.355l0,-253.811c0,-13.261 5.268,-25.978 14.645,-35.355c9.377,-9.377 22.094,-14.645 35.355,-14.645l187.11,0c13.261,0 25.979,5.268 35.355,14.645c9.377,9.377 14.645,22.094 14.645,35.355Z"/><path d="M215.585,306.162c10.792,-4.395 23.064,-3.131 32.733,3.371c9.67,6.503 15.469,17.391 15.469,29.044c0,97.347 0,305.91 0,403.257c0,11.653 -5.799,22.541 -15.469,29.044c-9.669,6.502 -21.941,7.766 -32.733,3.371c-15.188,-6.186 -31.555,-12.852 -45.226,-18.42c-18.829,-7.669 -31.14,-25.976 -31.14,-46.307c-0,-76.383 -0,-262.25 -0,-338.633c-0,-20.331 12.311,-38.638 31.14,-46.307c13.671,-5.568 30.038,-12.234 45.226,-18.42Z" style="stroke:#000;stroke-width:20px;"/><path d="M290.908,444.476c0,-0 24.666,-5.457 35.074,11.086c21.273,33.812 78.385,29.399 77.222,43.721c-5.133,63.206 -17.774,105.361 -23.216,109.338c-31.142,22.759 -89.08,28.961 -89.08,28.961l0,-193.106Z" style="stroke:#000;stroke-width:20px;"/><text x="587.155px" y="610.814px" style="font-family:'Asap-Bold', 'Asap', sans-serif;font-weight:700;font-size:220px;">Bo<tspan x="840.595px " y="610.814px ">x</tspan> of Hope</text></g></g></g><path d="M288.024,484.726c17.435,-0.098 24.488,0.846 35.059,3.543c13.841,3.531 22.347,13.092 51.835,20.378" style="fill:none;stroke:#000;stroke-width:10px;"/><path d="M285.05,379.794l0,321.607" style="fill:none;stroke:#000;stroke-width:20px;"/></g><defs><linearGradient id="_Linear2" x1="0" y1="0" x2="1" y2="0" gradientUnits="userSpaceOnUse" gradientTransform="matrix(1920,1080,-1080,1920,0.3888,0.205546)"><stop offset="0" style="stop-color:#009cff;stop-opacity:1"/><stop offset="1" style="stop-color:#dc00ff;stop-opacity:1"/></linearGradient></defs></svg>